<?xml version="1.0"?>
<svg width="1024" height="1024" xmlns="http://www.w3.org/2000/svg" xmlns:svg="http://www.w3.org/2000/svg" class="svg-icon" version="1.1">

 <g class="layer">
  <title>Layer 1</title>
  <path d="m819.2,729.1l0,28.7c0,33.8 -27.6,61.4 -61.4,61.4l-491.6,0c-33.8,0 -61.4,-27.6 -61.4,-61.4l0,-28.7c0,-74.8 87,-119.8 169,-155.6c3.1,-1 5.1,-2 8.2,-4.1c6.1,-3.1 13.3,-3.1 19.5,1c32.7,21.5 70.6,33.8 110.5,33.8c39.9,0 77.8,-12.3 110.6,-32.8c6.1,-4.1 13.3,-4.1 19.5,-1c3.1,1 5.1,2 8.2,4.1c81.9,34.8 169,79.9 169,154.6l-0.1,0z" fill="#ffffff" id="svg_1"/>
  <path d="m359.4,373.8a169,152.6 90 1 0 305.2,0a169,152.6 90 1 0 -305.2,0z" fill="#ffffff" id="svg_2" transform="matrix(1, 0, 0, 1, 0, 0)"/>
 </g>
</svg>